<?xml version="1.0" encoding="UTF-8" standalone="no"?>
<!-- Created with Inkscape (http://www.inkscape.org/) -->

<svg
   xmlns:dc="http://purl.org/dc/elements/1.1/"
   xmlns:cc="http://creativecommons.org/ns#"
   xmlns:rdf="http://www.w3.org/1999/02/22-rdf-syntax-ns#"
   xmlns:svg="http://www.w3.org/2000/svg"
   xmlns="http://www.w3.org/2000/svg"
   xmlns:sodipodi="http://sodipodi.sourceforge.net/DTD/sodipodi-0.dtd"
   xmlns:inkscape="http://www.inkscape.org/namespaces/inkscape"
   width="24"
   height="24"
   id="svg4460"
   version="1.1"
   inkscape:version="0.48.5 r10040"
   sodipodi:docname="circle-stroked-24.svg">
  <defs
     id="defs4462" />
  <sodipodi:namedview
     id="base"
     pagecolor="#ffffff"
     bordercolor="#666666"
     borderopacity="1.0"
     inkscape:pageopacity="0.0"
     inkscape:pageshadow="2"
     inkscape:zoom="15.999999"
     inkscape:cx="5.0267707"
     inkscape:cy="11.107843"
     inkscape:document-units="px"
     inkscape:current-layer="layer1"
     showgrid="true"
     showguides="true"
     inkscape:guide-bbox="true"
     inkscape:window-width="1366"
     inkscape:window-height="702"
     inkscape:window-x="0"
     inkscape:window-y="27"
     inkscape:window-maximized="1">
    <inkscape:grid
       type="xygrid"
       id="grid4468"
       empspacing="5"
       visible="true"
       enabled="true"
       snapvisiblegridlinesonly="true" />
    <sodipodi:guide
       orientation="1,0"
       position="0,20"
       id="guide4470" />
    <sodipodi:guide
       orientation="0,1"
       position="4,24"
       id="guide4472" />
    <sodipodi:guide
       orientation="1,0"
       position="24,13"
       id="guide4474" />
    <sodipodi:guide
       orientation="0,1"
       position="15,0"
       id="guide4476" />
    <sodipodi:guide
       orientation="1,0"
       position="23,20"
       id="guide4478" />
    <sodipodi:guide
       orientation="0,1"
       position="20,23"
       id="guide4480" />
    <sodipodi:guide
       orientation="1,0"
       position="2,5"
       id="guide4482" />
    <sodipodi:guide
       orientation="0,1"
       position="7,2"
       id="guide4484" />
    <sodipodi:guide
       orientation="1,0"
       position="13,16"
       id="guide4486" />
    <sodipodi:guide
       orientation="0,1"
       position="16,13"
       id="guide4490" />
  </sodipodi:namedview>
  <metadata
     id="metadata4465">
    <rdf:RDF>
      <cc:Work
         rdf:about="">
        <dc:format>image/svg+xml</dc:format>
        <dc:type
           rdf:resource="http://purl.org/dc/dcmitype/StillImage" />
        <dc:title />
      </cc:Work>
    </rdf:RDF>
  </metadata>
  <g
     inkscape:label="Layer 1"
     inkscape:groupmode="layer"
     id="layer1"
     transform="translate(0,-1028.3622)">
    <path
       sodipodi:type="arc"
       style="fill:#ffffff;fill-opacity:1;fill-rule:nonzero;stroke:none"
       id="path3807"
       sodipodi:cx="16"
       sodipodi:cy="14"
       sodipodi:rx="9"
       sodipodi:ry="9"
       d="M 25,14 A 9,9 0 1 1 7,14 9,9 0 1 1 25,14 z"
       transform="matrix(0.77777407,0,0,0.77777407,-0.00688512,1029.0984)" />
    <g
       transform="translate(72,-22)"
       style="display:inline"
       id="circle-stroked-24"
       inkscape:label="circle-stroked-24"
       inkscape:export-xdpi="89.996864"
       inkscape:export-ydpi="89.996864">
      <rect
         y="1050.3622"
         x="-72"
         height="24"
         width="24"
         id="rect4067"
         style="opacity:0.3;color:#000000;fill:#ffffff;fill-opacity:0;fill-rule:nonzero;stroke:none;stroke-width:2;marker:none;visibility:visible;display:inline;overflow:visible;enable-background:accumulate" />
      <path
         style="opacity:0.3;color:#000000;fill:#ffffff;fill-opacity:1;fill-rule:nonzero;stroke:#ffffff;stroke-width:2;stroke-linecap:butt;stroke-linejoin:miter;stroke-miterlimit:4;stroke-opacity:1;stroke-dasharray:none;stroke-dashoffset:0;marker:none;visibility:visible;display:inline;overflow:visible;enable-background:accumulate"
         d="m -59.5,1053.3622 c -4.69442,0 -8.5,3.8056 -8.5,8.5 0,4.6944 3.80558,8.5 8.5,8.5 4.69442,0 8.5,-3.8056 8.5,-8.5 0,-4.6944 -3.80558,-8.5 -8.5,-8.5 z m 0,2 c 3.589851,0 6.5,2.9101 6.5,6.5 0,3.5899 -2.910149,6.5 -6.5,6.5 -3.589851,0 -6.5,-2.9101 -6.5,-6.5 0,-3.5899 2.910149,-6.5 6.5,-6.5 z"
         id="path4086"
         inkscape:connector-curvature="0"
         sodipodi:nodetypes="ssssssssss" />
      <path
         sodipodi:nodetypes="ssssssssss"
         inkscape:connector-curvature="0"
         id="path4081"
         d="m -59.5,1053.3622 c -4.69442,0 -8.5,3.8056 -8.5,8.5 0,4.6944 3.80558,8.5 8.5,8.5 4.69442,0 8.5,-3.8056 8.5,-8.5 0,-4.6944 -3.80558,-8.5 -8.5,-8.5 z m 0,2 c 3.589851,0 6.5,2.9101 6.5,6.5 0,3.5899 -2.910149,6.5 -6.5,6.5 -3.589851,0 -6.5,-2.9101 -6.5,-6.5 0,-3.5899 2.910149,-6.5 6.5,-6.5 z"
         style="color:#000000;fill:#5cb85f;fill-opacity:1;fill-rule:nonzero;stroke:none;stroke-width:0.60009109999999999;marker:none;visibility:visible;display:inline;overflow:visible;enable-background:accumulate" />
    </g>
    <g
       id="layer1-1"
       inkscape:label="Layer 1"
       transform="matrix(0.43907371,0,0,0.43907371,6.7311243,582.81021)">
      <g
         inkscape:label="#g7745"
         transform="translate(-318,-335)"
         id="disability-24"
         style="display:inline">
        <g
           id="g7532">
          <path
             style="opacity:0.3;color:#000000;fill:none;stroke:#ffffff;stroke-width:2;stroke-linecap:round;stroke-linejoin:round;stroke-miterlimit:4;stroke-opacity:1;stroke-dasharray:none;stroke-dashoffset:0;marker:none;visibility:visible;display:inline;overflow:visible;enable-background:accumulate"
             d="m 330.13874,1365.9459 c -1.3807,0 -2.5,1.1193 -2.5,2.5 0,1.3808 1.1193,2.5 2.5,2.5 1.3807,0 2.5,-1.1192 2.5,-2.5 0,-1.3807 -1.1193,-2.5 -2.5,-2.5 z m -0.5,6 c -1,0 -2,1 -2,2 l 0,3.5 c 0,1.5 1,2.5 2.5,2.5 l 5,0 2.625,3.5 c 0.22625,0.3321 0.48443,0.5 0.875,0.5 0.50005,0 1.00005,-0.5 1,-1 0,-0.293 -0.16664,-0.5202 -0.28125,-0.7187 l -2.71875,-3.7813 c -0.18118,-0.3138 -0.49995,-0.5001 -1,-0.5 l -2.5,0 -1,-4 c -0.24256,-0.9702 -0.5,-2 -1.5,-2 z m -3,2 c -2.33117,0.8233 -4,3.387 -4,6 0,3.3137 2.6863,6 6,6 2.97561,0 5.43327,-2.1586 5.90625,-5 l -1.90625,0 c -0.5381,1.73 -1.84289,3 -3.75,3 -2.34721,0 -4.25,-1.9028 -4.25,-4.25 0,-1.5176 0.80334,-2.9981 2,-3.75 z"
             id="path7610"
             inkscape:connector-curvature="0"
             sodipodi:nodetypes="sssssssssccscccccssscssccsscc" />
          <path
             sodipodi:nodetypes="sssssssssccscccccssscssccsscc"
             inkscape:connector-curvature="0"
             id="path7523"
             d="m 330.13874,1365.9459 c -1.3807,0 -2.5,1.1193 -2.5,2.5 0,1.3808 1.1193,2.5 2.5,2.5 1.3807,0 2.5,-1.1192 2.5,-2.5 0,-1.3807 -1.1193,-2.5 -2.5,-2.5 z m -0.5,6 c -1,0 -2,1 -2,2 l 0,3.5 c 0,1.5 1,2.5 2.5,2.5 l 5,0 2.625,3.5 c 0.22625,0.3321 0.48443,0.5 0.875,0.5 0.50005,0 1.00005,-0.5 1,-1 0,-0.293 -0.16664,-0.5202 -0.28125,-0.7187 l -2.71875,-3.7813 c -0.18118,-0.3138 -0.49995,-0.5001 -1,-0.5 l -2.5,0 -1,-4 c -0.24256,-0.9702 -0.5,-2 -1.5,-2 z m -3,2 c -2.33117,0.8233 -4,3.387 -4,6 0,3.3137 2.6863,6 6,6 2.97561,0 5.43327,-2.1586 5.90625,-5 l -1.90625,0 c -0.5381,1.73 -1.84289,3 -3.75,3 -2.34721,0 -4.25,-1.9028 -4.25,-4.25 0,-1.5176 0.80334,-2.9981 2,-3.75 z"
             style="color:#000000;fill:#5fba62;fill-opacity:1;fill-rule:nonzero;stroke:none;stroke-width:2;marker:none;visibility:visible;display:inline;overflow:visible;enable-background:accumulate" />
          <g
             transform="translate(-2,49)"
             id="g7469"
             inkscape:label="#g6112">
            <rect
               style="color:#000000;fill:none;stroke:none;stroke-width:2;marker:none;visibility:visible;display:inline;overflow:visible;enable-background:accumulate"
               id="rect7473"
               width="23.99996"
               height="23.99996"
               x="320"
               y="1314.3623" />
          </g>
        </g>
      </g>
    </g>
  </g>
</svg>
