<?xml version="1.0" encoding="UTF-8" standalone="no"?>
<!-- Created with Inkscape (http://www.inkscape.org/) -->

<svg
   xmlns:dc="http://purl.org/dc/elements/1.1/"
   xmlns:cc="http://creativecommons.org/ns#"
   xmlns:rdf="http://www.w3.org/1999/02/22-rdf-syntax-ns#"
   xmlns:svg="http://www.w3.org/2000/svg"
   xmlns="http://www.w3.org/2000/svg"
   xmlns:sodipodi="http://sodipodi.sourceforge.net/DTD/sodipodi-0.dtd"
   xmlns:inkscape="http://www.inkscape.org/namespaces/inkscape"
   width="24"
   height="24"
   id="svg4460"
   version="1.1"
   inkscape:version="0.48.5 r10040"
   sodipodi:docname="circle-24.svg"
   inkscape:export-filename="/home/wille/projetos/pontocerto/pontocerto-icons/circle-24.png"
   inkscape:export-xdpi="179.99988"
   inkscape:export-ydpi="179.99988">
  <defs
     id="defs4462" />
  <sodipodi:namedview
     id="base"
     pagecolor="#ffffff"
     bordercolor="#666666"
     borderopacity="1.0"
     inkscape:pageopacity="0.0"
     inkscape:pageshadow="2"
     inkscape:zoom="11.313708"
     inkscape:cx="25.22717"
     inkscape:cy="3.4749944"
     inkscape:document-units="px"
     inkscape:current-layer="layer1"
     showgrid="true"
     showguides="true"
     inkscape:guide-bbox="true"
     inkscape:window-width="1220"
     inkscape:window-height="701"
     inkscape:window-x="56"
     inkscape:window-y="27"
     inkscape:window-maximized="0">
    <inkscape:grid
       type="xygrid"
       id="grid4468"
       empspacing="5"
       visible="true"
       enabled="true"
       snapvisiblegridlinesonly="true" />
    <sodipodi:guide
       orientation="1,0"
       position="0,20"
       id="guide4470" />
    <sodipodi:guide
       orientation="0,1"
       position="4,24"
       id="guide4472" />
    <sodipodi:guide
       orientation="1,0"
       position="24,13"
       id="guide4474" />
    <sodipodi:guide
       orientation="0,1"
       position="15,0"
       id="guide4476" />
    <sodipodi:guide
       orientation="1,0"
       position="23,20"
       id="guide4478" />
    <sodipodi:guide
       orientation="0,1"
       position="20,23"
       id="guide4480" />
    <sodipodi:guide
       orientation="1,0"
       position="2,5"
       id="guide4482" />
    <sodipodi:guide
       orientation="0,1"
       position="7,2"
       id="guide4484" />
    <sodipodi:guide
       orientation="1,0"
       position="13,16"
       id="guide4486" />
    <sodipodi:guide
       orientation="0,1"
       position="16,13"
       id="guide4490" />
  </sodipodi:namedview>
  <metadata
     id="metadata4465">
    <rdf:RDF>
      <cc:Work
         rdf:about="">
        <dc:format>image/svg+xml</dc:format>
        <dc:type
           rdf:resource="http://purl.org/dc/dcmitype/StillImage" />
        <dc:title></dc:title>
      </cc:Work>
    </rdf:RDF>
  </metadata>
  <g
     inkscape:label="Layer 1"
     inkscape:groupmode="layer"
     id="layer1"
     transform="translate(0,-1028.3622)">
    <g
       transform="translate(72,-46)"
       style="display:inline"
       id="circle-24"
       inkscape:label="circle-24"
       inkscape:export-xdpi="89.996864"
       inkscape:export-ydpi="89.996864">
      <g
         inkscape:export-ydpi="90"
         inkscape:export-xdpi="90"
         transform="matrix(-1,0,0,1,-108,70.000002)"
         id="g11227">
        <path
           transform="matrix(1.0303081,0,0,1.0303081,-61.121232,1003.2409)"
           d="m 20.5,12.25 c 0,4.556349 -3.693651,8.25 -8.25,8.25 C 7.6936508,20.5 4,16.806349 4,12.25 4,7.6936508 7.6936508,4 12.25,4 c 4.556349,0 8.25,3.6936508 8.25,8.25 z"
           sodipodi:ry="8.25"
           sodipodi:rx="8.25"
           sodipodi:cy="12.25"
           sodipodi:cx="12.25"
           id="path8568"
           style="opacity:0.3;color:#000000;fill:#ffffff;fill-opacity:1;fill-rule:nonzero;stroke:#ffffff;stroke-width:1.94116688;stroke-miterlimit:4;stroke-dasharray:none;marker:none;visibility:visible;display:inline;overflow:visible;enable-background:accumulate"
           sodipodi:type="arc" />
        <path
           sodipodi:type="arc"
           style="color:#000000;fill:#5fba62;fill-opacity:1;fill-rule:nonzero;stroke:none;stroke-width:2;marker:none;visibility:visible;display:inline;overflow:visible;enable-background:accumulate"
           id="path8564"
           sodipodi:cx="12.25"
           sodipodi:cy="12.25"
           sodipodi:rx="8.25"
           sodipodi:ry="8.25"
           d="m 20.5,12.25 c 0,4.556349 -3.693651,8.25 -8.25,8.25 C 7.6936508,20.5 4,16.806349 4,12.25 4,7.6936508 7.6936508,4 12.25,4 c 4.556349,0 8.25,3.6936508 8.25,8.25 z"
           transform="matrix(1.0303132,0,0,1.0303132,-61.121337,1003.2409)" />
      </g>
      <rect
         style="opacity:0.5;color:#000000;fill:none;stroke:none;stroke-width:2;marker:none;visibility:visible;display:inline;overflow:visible;enable-background:accumulate"
         id="rect21973"
         width="24"
         height="24.000017"
         x="-72"
         y="1074.3622" />
    </g>
    <g
       id="layer1-1"
       inkscape:label="Layer 1"
       transform="matrix(0.43907371,0,0,0.43907371,6.8637069,582.63212)">
      <g
         inkscape:label="#g7745"
         transform="translate(-318,-335)"
         id="disability-24"
         style="display:inline">
        <g
           id="g7532">
          <path
             style="opacity:0.3;color:#000000;fill:none;stroke:#ffffff;stroke-width:2;stroke-linecap:round;stroke-linejoin:round;stroke-miterlimit:4;stroke-opacity:1;stroke-dasharray:none;stroke-dashoffset:0;marker:none;visibility:visible;display:inline;overflow:visible;enable-background:accumulate"
             d="m 330.13874,1365.9459 c -1.3807,0 -2.5,1.1193 -2.5,2.5 0,1.3808 1.1193,2.5 2.5,2.5 1.3807,0 2.5,-1.1192 2.5,-2.5 0,-1.3807 -1.1193,-2.5 -2.5,-2.5 z m -0.5,6 c -1,0 -2,1 -2,2 l 0,3.5 c 0,1.5 1,2.5 2.5,2.5 l 5,0 2.625,3.5 c 0.22625,0.3321 0.48443,0.5 0.875,0.5 0.50005,0 1.00005,-0.5 1,-1 0,-0.293 -0.16664,-0.5202 -0.28125,-0.7187 l -2.71875,-3.7813 c -0.18118,-0.3138 -0.49995,-0.5001 -1,-0.5 l -2.5,0 -1,-4 c -0.24256,-0.9702 -0.5,-2 -1.5,-2 z m -3,2 c -2.33117,0.8233 -4,3.387 -4,6 0,3.3137 2.6863,6 6,6 2.97561,0 5.43327,-2.1586 5.90625,-5 l -1.90625,0 c -0.5381,1.73 -1.84289,3 -3.75,3 -2.34721,0 -4.25,-1.9028 -4.25,-4.25 0,-1.5176 0.80334,-2.9981 2,-3.75 z"
             id="path7610"
             inkscape:connector-curvature="0"
             sodipodi:nodetypes="sssssssssccscccccssscssccsscc" />
          <path
             sodipodi:nodetypes="sssssssssccscccccssscssccsscc"
             inkscape:connector-curvature="0"
             id="path7523"
             d="m 330.13874,1365.9459 c -1.3807,0 -2.5,1.1193 -2.5,2.5 0,1.3808 1.1193,2.5 2.5,2.5 1.3807,0 2.5,-1.1192 2.5,-2.5 0,-1.3807 -1.1193,-2.5 -2.5,-2.5 z m -0.5,6 c -1,0 -2,1 -2,2 l 0,3.5 c 0,1.5 1,2.5 2.5,2.5 l 5,0 2.625,3.5 c 0.22625,0.3321 0.48443,0.5 0.875,0.5 0.50005,0 1.00005,-0.5 1,-1 0,-0.293 -0.16664,-0.5202 -0.28125,-0.7187 l -2.71875,-3.7813 c -0.18118,-0.3138 -0.49995,-0.5001 -1,-0.5 l -2.5,0 -1,-4 c -0.24256,-0.9702 -0.5,-2 -1.5,-2 z m -3,2 c -2.33117,0.8233 -4,3.387 -4,6 0,3.3137 2.6863,6 6,6 2.97561,0 5.43327,-2.1586 5.90625,-5 l -1.90625,0 c -0.5381,1.73 -1.84289,3 -3.75,3 -2.34721,0 -4.25,-1.9028 -4.25,-4.25 0,-1.5176 0.80334,-2.9981 2,-3.75 z"
             style="color:#000000;fill:#ffffff;fill-opacity:1;fill-rule:nonzero;stroke:none;stroke-width:2;marker:none;visibility:visible;display:inline;overflow:visible;enable-background:accumulate" />
          <g
             transform="translate(-2,49)"
             id="g7469"
             inkscape:label="#g6112">
            <rect
               style="color:#000000;fill:none;stroke:none;stroke-width:2;marker:none;visibility:visible;display:inline;overflow:visible;enable-background:accumulate"
               id="rect7473"
               width="23.99996"
               height="23.99996"
               x="320"
               y="1314.3623" />
          </g>
        </g>
      </g>
    </g>
  </g>
</svg>
